<?xml version="1.0" ?><!DOCTYPE svg  PUBLIC '-//W3C//DTD SVG 1.1//EN'  'http://www.w3.org/Graphics/SVG/1.1/DTD/svg11.dtd'>	<svg xmlns:xlink="http://www.w3.org/1999/xlink" xmlns="http://www.w3.org/2000/svg" width="957.857143pt" height="576pt" viewBox="0 0 957.857143 576" version="1.1">	
 	<metadata>	
  	<rdf:RDF xmlns:dc="http://purl.org/dc/elements/1.1/" xmlns:cc="http://creativecommons.org/ns#" xmlns:rdf="http://www.w3.org/1999/02/22-rdf-syntax-ns#">	
   	<cc:Work>	
    	<dc:type rdf:resource="http://purl.org/dc/dcmitype/StillImage"/>	
    	<dc:date>2025-04-25T17:11:18.309929</dc:date>	
    	<dc:format>image/svg+xml</dc:format>	
    	<dc:creator>	
     	<cc:Agent>	
      	<dc:title>Matplotlib v3.7.5, https://matplotlib.org/</dc:title>	
     	</cc:Agent>	
    	</dc:creator>	
   	</cc:Work>	
  	</rdf:RDF>	
 	</metadata>	
 	<defs>	
  	<style type="text/css">*{stroke-linejoin: round; stroke-linecap: butt}</style>	
 	</defs>	
 	<g id="figure_1">	
  	
  	<g id="axes_1">	
   	<g id="line2d_1">	
    	<path d="M 669.379297 331.561614  L 668.471014 332.46565  L 666.654449 332.46565  L 666.654449 333.369686  L 665.746167 334.273722  L 665.746167 336.081794  L 664.837884 336.98583  L 664.837884 338.793901  L 663.929602 339.697937  L 663.929602 341.506009  L 663.021319 342.410045  L 663.021319 344.218117  L 662.113037 345.122152  L 662.113037 346.930224  L 661.204754 347.83426  L 661.204754 349.642332  L 660.296472 350.546368  L 660.296472 352.354439  L 659.388189 353.258475  L 659.388189 355.066547  L 658.479907 355.970583  L 658.479907 357.778655  L 657.571624 358.682691  L 657.571624 360.490762  L 656.663342 361.394798  L 656.663342 363.20287  L 655.755059 364.106906  L 655.755059 365.914978  L 654.846777 366.819013  L 654.846777 368.627085  L 653.938494 369.531121  L 653.938494 371.339193  L 653.030212 372.243229  L 653.030212 374.0513  L 652.121929 374.955336  L 652.121929 376.763408  L 651.213647 377.667444  L 651.213647 379.475516  L 650.305364 380.379552  L 650.305364 382.187623  L 649.397082 383.091659  L 649.397082 384.899731  L 648.488799 385.803767  L 648.488799 386.707803  L 647.580517 387.611839  L 643.947387 387.611839  L 643.039104 388.515874  L 641.222539 388.515874  L 640.314257 389.41991  L 638.497692 389.41991  L 637.589409 390.323946  L 635.772844 390.323946  L 634.864562 391.227982  L 633.047997 391.227982  L 632.139714 392.132018  L 630.323149 392.132018  L 629.414867 393.036054  L 627.598302 393.036054  L 626.690019 393.94009  L 623.965172 393.94009  L 623.056889 394.844126  L 621.240324 394.844126  L 620.332042 395.748161  L 618.515477 395.748161  L 617.607194 396.652197  L 615.790629 396.652197  L 614.882347 397.556233  L 613.065782 397.556233  L 612.157499 398.460269  L 610.340934 398.460269  L 609.432652 399.364305  L 606.707804 399.364305  L 605.799522 400.268341  L 603.982957 400.268341  L 603.074674 401.172377  L 601.258109 401.172377  L 600.349827 402.076413  L 598.533262 402.076413  L 597.624979 402.980448  L 595.808414 402.980448  L 594.900132 403.884484  L 593.083567 403.884484  L 592.175284 404.78852  L 591.267002 404.78852  L 591.267002 406.596592  L 590.358719 407.500628  L 590.358719 409.3087  L 591.267002 410.212735  L 591.267002 412.020807  L 592.175284 412.020807  L 593.083567 412.924843  L 594.900132 412.924843  L 595.808414 413.828879  L 597.624979 413.828879  L 598.533262 414.732915  L 601.258109 414.732915  L 602.166392 415.636951  L 603.982957 415.636951  L 604.891239 416.540987  L 606.707804 416.540987  L 607.616087 417.445022  L 610.340934 417.445022  L 611.249217 418.349058  L 613.065782 418.349058  L 613.974064 419.253094  L 615.790629 419.253094  L 616.698912 420.15713  L 619.423759 420.15713  L 620.332042 421.061166  L 622.148607 421.061166  L 623.056889 421.965202  L 624.873454 421.965202  L 625.781737 422.869238  L 627.598302 422.869238  L 628.506584 423.773274  L 631.231432 423.773274  L 632.139714 424.677309  L 633.956279 424.677309  L 634.864562 425.581345  L 636.681127 425.581345  L 637.589409 426.485381  L 640.314257 426.485381  L 641.222539 427.389417  L 643.039104 427.389417  L 643.947387 428.293453  L 645.763952 428.293453  L 646.672234 429.197489  L 647.580517 429.197489  L 648.488799 430.101525  L 648.488799 431.005561  L 649.397082 431.909596  L 649.397082 432.813632  L 650.305364 433.717668  L 650.305364 435.52574  L 651.213647 436.429776  L 651.213647 438.237848  L 652.121929 439.141883  L 652.121929 440.949955  L 653.030212 441.853991  L 653.030212 443.662063  L 653.938494 444.566099  L 653.938494 446.37417  L 654.846777 447.278206  L 654.846777 449.086278  L 655.755059 449.990314  L 655.755059 451.798386  L 656.663342 452.702422  L 656.663342 454.510493  L 657.571624 455.414529  L 657.571624 457.222601  L 658.479907 458.126637  L 658.479907 459.934709  L 659.388189 460.838744  L 659.388189 462.646816  L 660.296472 463.550852  L 660.296472 465.358924  L 661.204754 466.26296  L 661.204754 468.071031  L 662.113037 468.975067  L 662.113037 470.783139  L 663.021319 471.687175  L 663.021319 473.495247  L 663.929602 474.399283  L 663.929602 476.207354  L 664.837884 477.11139  L 664.837884 478.919462  L 665.746167 479.823498  L 665.746167 481.63157  L 666.654449 482.535605  L 666.654449 483.439641  L 668.471014 483.439641  L 669.379297 484.343677  L 671.195862 484.343677  L 672.104144 483.439641  L 673.920709 483.439641  L 674.828992 482.535605  L 674.828992 479.823498  L 675.737274 478.919462  L 675.737274 477.11139  L 676.645557 476.207354  L 676.645557 474.399283  L 677.553839 473.495247  L 677.553839 471.687175  L 678.462122 470.783139  L 678.462122 468.975067  L 679.370404 468.071031  L 679.370404 466.26296  L 680.278687 465.358924  L 680.278687 462.646816  L 681.186969 461.74278  L 681.186969 459.934709  L 682.095252 459.030673  L 682.095252 457.222601  L 683.003534 456.318565  L 683.003534 454.510493  L 683.911817 453.606457  L 683.911817 451.798386  L 684.820099 450.89435  L 684.820099 449.086278  L 685.728382 448.182242  L 685.728382 445.470135  L 686.636664 444.566099  L 686.636664 442.758027  L 687.544947 441.853991  L 687.544947 440.045919  L 688.453229 439.141883  L 688.453229 437.333812  L 689.361512 436.429776  L 689.361512 434.621704  L 690.269794 433.717668  L 690.269794 431.909596  L 691.178077 431.005561  L 691.178077 430.101525  L 692.086359 429.197489  L 692.994642 429.197489  L 693.902924 428.293453  L 695.719489 428.293453  L 696.627772 427.389417  L 698.444337 427.389417  L 699.352619 426.485381  L 702.077467 426.485381  L 702.985749 425.581345  L 704.802314 425.581345  L 705.710597 424.677309  L 707.527162 424.677309  L 708.435444 423.773274  L 711.160292 423.773274  L 712.068574 422.869238  L 713.885139 422.869238  L 714.793422 421.965202  L 716.609986 421.965202  L 717.518269 421.061166  L 720.243116 421.061166  L 721.151399 420.15713  L 722.967964 420.15713  L 723.876246 419.253094  L 725.692811 419.253094  L 726.601094 418.349058  L 728.417659 418.349058  L 729.325941 417.445022  L 732.050789 417.445022  L 732.959071 416.540987  L 734.775636 416.540987  L 735.683919 415.636951  L 737.500484 415.636951  L 738.408766 414.732915  L 741.133614 414.732915  L 742.041896 413.828879  L 743.858461 413.828879  L 744.766744 412.924843  L 746.583309 412.924843  L 747.491591 412.020807  L 748.399874 412.020807  L 748.399874 410.212735  L 749.308156 409.3087  L 749.308156 407.500628  L 748.399874 406.596592  L 748.399874 404.78852  L 747.491591 404.78852  L 746.583309 403.884484  L 744.766744 403.884484  L 743.858461 402.980448  L 742.041896 402.980448  L 741.133614 402.076413  L 739.317049 402.076413  L 738.408766 401.172377  L 736.592201 401.172377  L 735.683919 400.268341  L 733.867354 400.268341  L 732.959071 399.364305  L 730.234224 399.364305  L 729.325941 398.460269  L 727.509376 398.460269  L 726.601094 397.556233  L 724.784529 397.556233  L 723.876246 396.652197  L 722.059681 396.652197  L 721.151399 395.748161  L 719.334834 395.748161  L 718.426551 394.844126  L 716.609986 394.844126  L 715.701704 393.94009  L 713.885139 393.94009  L 712.976857 393.036054  L 710.252009 393.036054  L 709.343727 392.132018  L 707.527162 392.132018  L 706.618879 391.227982  L 704.802314 391.227982  L 703.894032 390.323946  L 702.077467 390.323946  L 701.169184 389.41991  L 699.352619 389.41991  L 698.444337 388.515874  L 696.627772 388.515874  L 695.719489 387.611839  L 693.902924 387.611839  L 692.994642 386.707803  L 692.086359 386.707803  L 691.178077 385.803767  L 691.178077 384.899731  L 690.269794 383.995695  L 690.269794 382.187623  L 689.361512 381.283587  L 689.361512 379.475516  L 688.453229 378.57148  L 688.453229 376.763408  L 687.544947 375.859372  L 687.544947 374.0513  L 686.636664 373.147265  L 686.636664 371.339193  L 685.728382 370.435157  L 685.728382 367.723049  L 684.820099 366.819013  L 684.820099 365.010942  L 683.911817 364.106906  L 683.911817 362.298834  L 683.003534 361.394798  L 683.003534 359.586726  L 682.095252 358.682691  L 682.095252 356.874619  L 681.186969 355.970583  L 681.186969 354.162511  L 680.278687 353.258475  L 680.278687 350.546368  L 679.370404 349.642332  L 679.370404 347.83426  L 678.462122 346.930224  L 678.462122 345.122152  L 677.553839 344.218117  L 677.553839 342.410045  L 676.645557 341.506009  L 676.645557 339.697937  L 675.737274 338.793901  L 675.737274 336.98583  L 674.828992 336.081794  L 674.828992 334.273722  L 673.920709 333.369686  L 673.920709 332.46565  L 672.104144 332.46565  L 671.195862 331.561614  L 669.379297 331.561614  L 669.379297 331.561614  " clip-path="url(#p235f7d5d1a)" style="fill: none; stroke: #000000; stroke-width: 2; stroke-linecap: square"/>	
   	</g>	
   	<g id="line2d_2">	
    	<path d="M 248.8445 310.768789  L 247.936217 311.672825  L 246.119652 311.672825  L 246.119652 312.576861  L 245.21137 313.480897  L 245.21137 315.288969  L 244.303087 316.193004  L 244.303087 318.001076  L 243.394805 318.905112  L 243.394805 320.713184  L 242.486522 321.61722  L 242.486522 323.425291  L 241.57824 324.329327  L 241.57824 326.137399  L 240.669957 327.041435  L 240.669957 328.849507  L 239.761675 329.753543  L 239.761675 331.561614  L 238.853392 332.46565  L 238.853392 334.273722  L 237.94511 335.177758  L 237.94511 336.98583  L 237.036827 337.889865  L 237.036827 339.697937  L 236.128545 340.601973  L 236.128545 342.410045  L 235.220262 343.314081  L 235.220262 345.122152  L 234.31198 346.026188  L 234.31198 347.83426  L 233.403697 348.738296  L 233.403697 350.546368  L 232.495415 351.450404  L 232.495415 353.258475  L 231.587133 354.162511  L 231.587133 355.970583  L 230.67885 356.874619  L 230.67885 358.682691  L 229.770568 359.586726  L 229.770568 361.394798  L 228.862285 362.298834  L 228.862285 364.106906  L 227.954003 365.010942  L 227.954003 366.819013  L 227.04572 367.723049  L 227.04572 370.435157  L 226.137438 371.339193  L 226.137438 373.147265  L 225.229155 374.0513  L 225.229155 375.859372  L 224.320873 376.763408  L 224.320873 377.667444  L 223.41259 378.57148  L 219.77946 378.57148  L 218.871178 379.475516  L 217.054613 379.475516  L 216.14633 380.379552  L 214.329765 380.379552  L 213.421483 381.283587  L 210.696635 381.283587  L 209.788353 382.187623  L 207.971788 382.187623  L 207.063505 383.091659  L 204.338658 383.091659  L 203.430375 383.995695  L 201.61381 383.995695  L 200.705528 384.899731  L 198.888963 384.899731  L 197.98068 385.803767  L 195.255833 385.803767  L 194.34755 386.707803  L 192.530985 386.707803  L 191.622703 387.611839  L 189.806138 387.611839  L 188.897855 388.515874  L 186.173008 388.515874  L 185.264725 389.41991  L 183.44816 389.41991  L 182.539878 390.323946  L 180.723313 390.323946  L 179.81503 391.227982  L 177.090183 391.227982  L 176.1819 392.132018  L 174.365335 392.132018  L 173.457053 393.036054  L 171.640488 393.036054  L 170.732205 393.94009  L 168.007358 393.94009  L 167.099075 394.844126  L 165.28251 394.844126  L 164.374228 395.748161  L 162.557663 395.748161  L 161.64938 396.652197  L 158.924533 396.652197  L 158.01625 397.556233  L 156.199685 397.556233  L 155.291403 398.460269  L 154.38312 398.460269  L 154.38312 400.268341  L 153.474838 401.172377  L 153.474838 402.980448  L 154.38312 403.884484  L 154.38312 405.692556  L 155.291403 405.692556  L 156.199685 406.596592  L 158.01625 406.596592  L 158.924533 407.500628  L 161.64938 407.500628  L 162.557663 408.404664  L 164.374228 408.404664  L 165.28251 409.3087  L 168.007358 409.3087  L 168.91564 410.212735  L 170.732205 410.212735  L 171.640488 411.116771  L 174.365335 411.116771  L 175.273618 412.020807  L 177.090183 412.020807  L 177.998465 412.924843  L 180.723313 412.924843  L 181.631595 413.828879  L 183.44816 413.828879  L 184.356443 414.732915  L 187.08129 414.732915  L 187.989573 415.636951  L 189.806138 415.636951  L 190.71442 416.540987  L 193.439268 416.540987  L 194.34755 417.445022  L 196.164115 417.445022  L 197.072398 418.349058  L 199.797245 418.349058  L 200.705528 419.253094  L 202.522093 419.253094  L 203.430375 420.15713  L 206.155223 420.15713  L 207.063505 421.061166  L 208.88007 421.061166  L 209.788353 421.965202  L 212.5132 421.965202  L 213.421483 422.869238  L 215.238048 422.869238  L 216.14633 423.773274  L 218.871178 423.773274  L 219.77946 424.677309  L 221.596025 424.677309  L 222.504308 425.581345  L 223.41259 425.581345  L 224.320873 426.485381  L 224.320873 427.389417  L 225.229155 428.293453  L 225.229155 429.197489  L 226.137438 430.101525  L 226.137438 432.813632  L 227.04572 433.717668  L 227.04572 435.52574  L 227.954003 436.429776  L 227.954003 438.237848  L 228.862285 439.141883  L 228.862285 440.949955  L 229.770568 441.853991  L 229.770568 443.662063  L 230.67885 444.566099  L 230.67885 446.37417  L 231.587133 447.278206  L 231.587133 449.086278  L 232.495415 449.990314  L 232.495415 451.798386  L 233.403697 452.702422  L 233.403697 454.510493  L 234.31198 455.414529  L 234.31198 457.222601  L 235.220262 458.126637  L 235.220262 459.934709  L 236.128545 460.838744  L 236.128545 462.646816  L 237.036827 463.550852  L 237.036827 465.358924  L 237.94511 466.26296  L 237.94511 468.071031  L 238.853392 468.975067  L 238.853392 470.783139  L 239.761675 471.687175  L 239.761675 473.495247  L 240.669957 474.399283  L 240.669957 476.207354  L 241.57824 477.11139  L 241.57824 478.919462  L 242.486522 479.823498  L 242.486522 481.63157  L 243.394805 482.535605  L 243.394805 484.343677  L 244.303087 485.247713  L 244.303087 487.055785  L 245.21137 487.959821  L 245.21137 489.767892  L 246.119652 490.671928  L 246.119652 491.575964  L 247.936217 491.575964  L 248.8445 492.48  L 250.661065 492.48  L 251.569347 491.575964  L 253.385912 491.575964  L 253.385912 490.671928  L 254.294195 489.767892  L 254.294195 487.959821  L 255.202477 487.055785  L 255.202477 485.247713  L 256.11076 484.343677  L 256.11076 482.535605  L 257.019042 481.63157  L 257.019042 479.823498  L 257.927325 478.919462  L 257.927325 477.11139  L 258.835607 476.207354  L 258.835607 474.399283  L 259.74389 473.495247  L 259.74389 471.687175  L 260.652172 470.783139  L 260.652172 468.975067  L 261.560455 468.071031  L 261.560455 466.26296  L 262.468737 465.358924  L 262.468737 463.550852  L 263.37702 462.646816  L 263.37702 460.838744  L 264.285302 459.934709  L 264.285302 458.126637  L 265.193585 457.222601  L 265.193585 455.414529  L 266.101867 454.510493  L 266.101867 452.702422  L 267.01015 451.798386  L 267.01015 449.990314  L 267.918432 449.086278  L 267.918432 447.278206  L 268.826715 446.37417  L 268.826715 444.566099  L 269.734997 443.662063  L 269.734997 441.853991  L 270.64328 440.949955  L 270.64328 439.141883  L 271.551562 438.237848  L 271.551562 436.429776  L 272.459845 435.52574  L 272.459845 433.717668  L 273.368127 432.813632  L 273.368127 430.101525  L 274.27641 429.197489  L 274.27641 428.293453  L 275.184692 427.389417  L 275.184692 426.485381  L 276.092975 425.581345  L 277.001257 425.581345  L 277.90954 424.677309  L 279.726105 424.677309  L 280.634387 423.773274  L 283.359235 423.773274  L 284.267517 422.869238  L 286.084082 422.869238  L 286.992365 421.965202  L 289.717212 421.965202  L 290.625495 421.061166  L 292.44206 421.061166  L 293.350342 420.15713  L 296.07519 420.15713  L 296.983472 419.253094  L 298.800037 419.253094  L 299.70832 418.349058  L 302.433167 418.349058  L 303.34145 417.445022  L 305.158015 417.445022  L 306.066297 416.540987  L 308.791145 416.540987  L 309.699427 415.636951  L 311.515992 415.636951  L 312.424275 414.732915  L 315.149122 414.732915  L 316.057405 413.828879  L 317.87397 413.828879  L 318.782252 412.924843  L 321.5071 412.924843  L 322.415382 412.020807  L 324.231947 412.020807  L 325.14023 411.116771  L 327.865077 411.116771  L 328.77336 410.212735  L 330.589925 410.212735  L 331.498207 409.3087  L 334.223055 409.3087  L 335.131337 408.404664  L 336.947902 408.404664  L 337.856185 407.500628  L 340.581032 407.500628  L 341.489315 406.596592  L 343.30588 406.596592  L 344.214162 405.692556  L 345.122445 405.692556  L 345.122445 403.884484  L 346.030727 402.980448  L 346.030727 401.172377  L 345.122445 400.268341  L 345.122445 398.460269  L 344.214162 398.460269  L 343.30588 397.556233  L 341.489315 397.556233  L 340.581032 396.652197  L 337.856185 396.652197  L 336.947902 395.748161  L 335.131337 395.748161  L 334.223055 394.844126  L 332.40649 394.844126  L 331.498207 393.94009  L 328.77336 393.94009  L 327.865077 393.036054  L 326.048512 393.036054  L 325.14023 392.132018  L 323.323665 392.132018  L 322.415382 391.227982  L 319.690535 391.227982  L 318.782252 390.323946  L 316.965687 390.323946  L 316.057405 389.41991  L 314.24084 389.41991  L 313.332557 388.515874  L 310.60771 388.515874  L 309.699427 387.611839  L 307.882862 387.611839  L 306.97458 386.707803  L 305.158015 386.707803  L 304.249732 385.803767  L 301.524885 385.803767  L 300.616602 384.899731  L 298.800037 384.899731  L 297.891755 383.995695  L 296.07519 383.995695  L 295.166907 383.091659  L 292.44206 383.091659  L 291.533777 382.187623  L 289.717212 382.187623  L 288.80893 381.283587  L 286.992365 381.283587  L 286.084082 380.379552  L 283.359235 380.379552  L 282.450952 379.475516  L 280.634387 379.475516  L 279.726105 378.57148  L 277.90954 378.57148  L 277.001257 377.667444  L 276.092975 377.667444  L 275.184692 376.763408  L 275.184692 375.859372  L 274.27641 374.955336  L 274.27641 374.0513  L 273.368127 373.147265  L 273.368127 371.339193  L 272.459845 370.435157  L 272.459845 367.723049  L 271.551562 366.819013  L 271.551562 365.010942  L 270.64328 364.106906  L 270.64328 362.298834  L 269.734997 361.394798  L 269.734997 359.586726  L 268.826715 358.682691  L 268.826715 356.874619  L 267.918432 355.970583  L 267.918432 354.162511  L 267.01015 353.258475  L 267.01015 351.450404  L 266.101867 350.546368  L 266.101867 348.738296  L 265.193585 347.83426  L 265.193585 346.026188  L 264.285302 345.122152  L 264.285302 343.314081  L 263.37702 342.410045  L 263.37702 340.601973  L 262.468737 339.697937  L 262.468737 337.889865  L 261.560455 336.98583  L 261.560455 335.177758  L 260.652172 334.273722  L 260.652172 332.46565  L 259.74389 331.561614  L 259.74389 329.753543  L 258.835607 328.849507  L 258.835607 327.041435  L 257.927325 326.137399  L 257.927325 324.329327  L 257.019042 323.425291  L 257.019042 321.61722  L 256.11076 320.713184  L 256.11076 318.905112  L 255.202477 318.001076  L 255.202477 316.193004  L 254.294195 315.288969  L 254.294195 313.480897  L 253.385912 312.576861  L 253.385912 311.672825  L 251.569347 311.672825  L 250.661065 310.768789  L 248.8445 310.768789  L 248.8445 310.768789  " clip-path="url(#p235f7d5d1a)" style="fill: none; stroke: #000000; stroke-width: 2; stroke-linecap: square"/>	
   	</g>	
   	<g id="line2d_3">	
    	<path d="M 719.334834 149.850404  L 718.426551 150.754439  L 716.609986 150.754439  L 716.609986 151.658475  L 715.701704 152.562511  L 715.701704 153.466547  L 714.793422 154.370583  L 714.793422 156.178655  L 713.885139 157.082691  L 713.885139 158.890762  L 712.976857 159.794798  L 712.976857 161.60287  L 712.068574 162.506906  L 712.068574 163.410942  L 711.160292 164.314978  L 711.160292 166.123049  L 710.252009 167.027085  L 710.252009 168.835157  L 709.343727 169.739193  L 709.343727 170.643229  L 708.435444 171.547265  L 708.435444 173.355336  L 707.527162 174.259372  L 707.527162 176.067444  L 706.618879 176.97148  L 706.618879 178.779552  L 705.710597 179.683587  L 705.710597 180.587623  L 704.802314 181.491659  L 704.802314 183.299731  L 703.894032 184.203767  L 703.894032 186.011839  L 702.985749 186.915874  L 702.985749 188.723946  L 702.077467 189.627982  L 702.077467 190.532018  L 701.169184 191.436054  L 701.169184 193.244126  L 700.260902 194.148161  L 700.260902 195.956233  L 699.352619 196.860269  L 699.352619 198.668341  L 698.444337 199.572377  L 698.444337 200.476413  L 697.536054 201.380448  L 697.536054 203.18852  L 696.627772 204.092556  L 696.627772 205.900628  L 695.719489 206.804664  L 695.719489 208.612735  L 694.811207 209.516771  L 694.811207 210.420807  L 693.902924 211.324843  L 693.902924 213.132915  L 692.994642 214.036951  L 692.994642 215.845022  L 692.086359 216.749058  L 692.086359 217.653094  L 691.178077 218.55713  L 687.544947 218.55713  L 686.636664 219.461166  L 683.911817 219.461166  L 683.003534 220.365202  L 681.186969 220.365202  L 680.278687 221.269238  L 677.553839 221.269238  L 676.645557 222.173274  L 673.920709 222.173274  L 673.012427 223.077309  L 671.195862 223.077309  L 670.287579 223.981345  L 667.562732 223.981345  L 666.654449 224.885381  L 664.837884 224.885381  L 663.929602 225.789417  L 661.204754 225.789417  L 660.296472 226.693453  L 657.571624 226.693453  L 656.663342 227.597489  L 654.846777 227.597489  L 653.938494 228.501525  L 651.213647 228.501525  L 650.305364 229.405561  L 647.580517 229.405561  L 646.672234 230.309596  L 644.855669 230.309596  L 643.947387 231.213632  L 641.222539 231.213632  L 640.314257 232.117668  L 638.497692 232.117668  L 637.589409 233.021704  L 634.864562 233.021704  L 633.956279 233.92574  L 631.231432 233.92574  L 630.323149 234.829776  L 628.506584 234.829776  L 627.598302 235.733812  L 624.873454 235.733812  L 623.965172 236.637848  L 621.240324 236.637848  L 620.332042 237.541883  L 618.515477 237.541883  L 617.607194 238.445919  L 614.882347 238.445919  L 613.974064 239.349955  L 613.065782 239.349955  L 613.065782 241.158027  L 612.157499 242.062063  L 612.157499 243.870135  L 613.065782 244.77417  L 613.065782 246.582242  L 613.974064 246.582242  L 614.882347 247.486278  L 617.607194 247.486278  L 618.515477 248.390314  L 620.332042 248.390314  L 621.240324 249.29435  L 623.965172 249.29435  L 624.873454 250.198386  L 626.690019 250.198386  L 627.598302 251.102422  L 630.323149 251.102422  L 631.231432 252.006457  L 633.956279 252.006457  L 634.864562 252.910493  L 636.681127 252.910493  L 637.589409 253.814529  L 640.314257 253.814529  L 641.222539 254.718565  L 643.947387 254.718565  L 644.855669 255.622601  L 646.672234 255.622601  L 647.580517 256.526637  L 650.305364 256.526637  L 651.213647 257.430673  L 653.030212 257.430673  L 653.938494 258.334709  L 656.663342 258.334709  L 657.571624 259.238744  L 660.296472 259.238744  L 661.204754 260.14278  L 663.021319 260.14278  L 663.929602 261.046816  L 666.654449 261.046816  L 667.562732 261.950852  L 670.287579 261.950852  L 671.195862 262.854888  L 673.012427 262.854888  L 673.920709 263.758924  L 676.645557 263.758924  L 677.553839 264.66296  L 679.370404 264.66296  L 680.278687 265.566996  L 683.003534 265.566996  L 683.911817 266.471031  L 686.636664 266.471031  L 687.544947 267.375067  L 689.361512 267.375067  L 690.269794 268.279103  L 691.178077 268.279103  L 692.086359 269.183139  L 692.086359 270.087175  L 692.994642 270.991211  L 692.994642 271.895247  L 693.902924 272.799283  L 693.902924 274.607354  L 694.811207 275.51139  L 694.811207 276.415426  L 695.719489 277.319462  L 695.719489 279.127534  L 696.627772 280.03157  L 696.627772 281.839641  L 697.536054 282.743677  L 697.536054 284.551749  L 698.444337 285.455785  L 698.444337 286.359821  L 699.352619 287.263857  L 699.352619 289.071928  L 700.260902 289.975964  L 700.260902 291.784036  L 701.169184 292.688072  L 701.169184 294.496143  L 702.077467 295.400179  L 702.077467 296.304215  L 702.985749 297.208251  L 702.985749 299.016323  L 703.894032 299.920359  L 703.894032 301.72843  L 704.802314 302.632466  L 704.802314 304.440538  L 705.710597 305.344574  L 705.710597 306.24861  L 706.618879 307.152646  L 706.618879 308.960717  L 707.527162 309.864753  L 707.527162 311.672825  L 708.435444 312.576861  L 708.435444 314.384933  L 709.343727 315.288969  L 709.343727 316.193004  L 710.252009 317.09704  L 710.252009 318.905112  L 711.160292 319.809148  L 711.160292 321.61722  L 712.068574 322.521256  L 712.068574 324.329327  L 712.976857 325.233363  L 712.976857 326.137399  L 713.885139 327.041435  L 713.885139 328.849507  L 714.793422 329.753543  L 714.793422 331.561614  L 715.701704 332.46565  L 715.701704 333.369686  L 716.609986 334.273722  L 716.609986 335.177758  L 718.426551 335.177758  L 719.334834 336.081794  L 721.151399 336.081794  L 722.059681 335.177758  L 723.876246 335.177758  L 724.784529 334.273722  L 724.784529 332.46565  L 725.692811 331.561614  L 725.692811 329.753543  L 726.601094 328.849507  L 726.601094 327.041435  L 727.509376 326.137399  L 727.509376 325.233363  L 728.417659 324.329327  L 728.417659 322.521256  L 729.325941 321.61722  L 729.325941 319.809148  L 730.234224 318.905112  L 730.234224 317.09704  L 731.142506 316.193004  L 731.142506 315.288969  L 732.050789 314.384933  L 732.050789 312.576861  L 732.959071 311.672825  L 732.959071 309.864753  L 733.867354 308.960717  L 733.867354 308.056682  L 734.775636 307.152646  L 734.775636 305.344574  L 735.683919 304.440538  L 735.683919 302.632466  L 736.592201 301.72843  L 736.592201 299.920359  L 737.500484 299.016323  L 737.500484 298.112287  L 738.408766 297.208251  L 738.408766 295.400179  L 739.317049 294.496143  L 739.317049 292.688072  L 740.225331 291.784036  L 740.225331 289.975964  L 741.133614 289.071928  L 741.133614 288.167892  L 742.041896 287.263857  L 742.041896 285.455785  L 742.950179 284.551749  L 742.950179 282.743677  L 743.858461 281.839641  L 743.858461 280.03157  L 744.766744 279.127534  L 744.766744 278.223498  L 745.675026 277.319462  L 745.675026 275.51139  L 746.583309 274.607354  L 746.583309 272.799283  L 747.491591 271.895247  L 747.491591 270.991211  L 748.399874 270.087175  L 748.399874 269.183139  L 749.308156 268.279103  L 750.216439 268.279103  L 751.124721 267.375067  L 752.941286 267.375067  L 753.849569 266.471031  L 756.574416 266.471031  L 757.482699 265.566996  L 760.207546 265.566996  L 761.115829 264.66296  L 762.932394 264.66296  L 763.840676 263.758924  L 766.565524 263.758924  L 767.473806 262.854888  L 770.198654 262.854888  L 771.106936 261.950852  L 772.923501 261.950852  L 773.831784 261.046816  L 776.556631 261.046816  L 777.464914 260.14278  L 779.281479 260.14278  L 780.189761 259.238744  L 782.914609 259.238744  L 783.822891 258.334709  L 786.547739 258.334709  L 787.456021 257.430673  L 789.272586 257.430673  L 790.180869 256.526637  L 792.905716 256.526637  L 793.813999 255.622601  L 796.538846 255.622601  L 797.447129 254.718565  L 799.263694 254.718565  L 800.171976 253.814529  L 802.896824 253.814529  L 803.805106 252.910493  L 805.621671 252.910493  L 806.529954 252.006457  L 809.254801 252.006457  L 810.163084 251.102422  L 812.887931 251.102422  L 813.796214 250.198386  L 815.612779 250.198386  L 816.521061 249.29435  L 819.245909 249.29435  L 820.154191 248.390314  L 822.879039 248.390314  L 823.787321 247.486278  L 825.603886 247.486278  L 826.512169 246.582242  L 827.420451 246.582242  L 827.420451 244.77417  L 828.328734 243.870135  L 828.328734 242.062063  L 827.420451 241.158027  L 827.420451 239.349955  L 826.512169 239.349955  L 825.603886 238.445919  L 822.879039 238.445919  L 821.970756 237.541883  L 820.154191 237.541883  L 819.245909 236.637848  L 816.521061 236.637848  L 815.612779 235.733812  L 812.887931 235.733812  L 811.979649 234.829776  L 810.163084 234.829776  L 809.254801 233.92574  L 806.529954 233.92574  L 805.621671 233.021704  L 803.805106 233.021704  L 802.896824 232.117668  L 800.171976 232.117668  L 799.263694 231.213632  L 796.538846 231.213632  L 795.630564 230.309596  L 793.813999 230.309596  L 792.905716 229.405561  L 790.180869 229.405561  L 789.272586 228.501525  L 786.547739 228.501525  L 785.639456 227.597489  L 783.822891 227.597489  L 782.914609 226.693453  L 780.189761 226.693453  L 779.281479 225.789417  L 777.464914 225.789417  L 776.556631 224.885381  L 773.831784 224.885381  L 772.923501 223.981345  L 770.198654 223.981345  L 769.290371 223.077309  L 767.473806 223.077309  L 766.565524 222.173274  L 763.840676 222.173274  L 762.932394 221.269238  L 760.207546 221.269238  L 759.299264 220.365202  L 757.482699 220.365202  L 756.574416 219.461166  L 753.849569 219.461166  L 752.941286 218.55713  L 751.124721 218.55713  L 750.216439 217.653094  L 749.308156 217.653094  L 748.399874 216.749058  L 748.399874 215.845022  L 747.491591 214.940987  L 747.491591 214.036951  L 746.583309 213.132915  L 746.583309 211.324843  L 745.675026 210.420807  L 745.675026 208.612735  L 744.766744 207.7087  L 744.766744 206.804664  L 743.858461 205.900628  L 743.858461 204.092556  L 742.950179 203.18852  L 742.950179 201.380448  L 742.041896 200.476413  L 742.041896 198.668341  L 741.133614 197.764305  L 741.133614 196.860269  L 740.225331 195.956233  L 740.225331 194.148161  L 739.317049 193.244126  L 739.317049 191.436054  L 738.408766 190.532018  L 738.408766 189.627982  L 737.500484 188.723946  L 737.500484 186.915874  L 736.592201 186.011839  L 736.592201 184.203767  L 735.683919 183.299731  L 735.683919 181.491659  L 734.775636 180.587623  L 734.775636 179.683587  L 733.867354 178.779552  L 733.867354 176.97148  L 732.959071 176.067444  L 732.959071 174.259372  L 732.050789 173.355336  L 732.050789 171.547265  L 731.142506 170.643229  L 731.142506 169.739193  L 730.234224 168.835157  L 730.234224 167.027085  L 729.325941 166.123049  L 729.325941 164.314978  L 728.417659 163.410942  L 728.417659 161.60287  L 727.509376 160.698834  L 727.509376 159.794798  L 726.601094 158.890762  L 726.601094 157.082691  L 725.692811 156.178655  L 725.692811 154.370583  L 724.784529 153.466547  L 724.784529 151.658475  L 723.876246 150.754439  L 722.059681 150.754439  L 721.151399 149.850404  L 719.334834 149.850404  L 719.334834 149.850404  " clip-path="url(#p235f7d5d1a)" style="fill: none; stroke: #000000; stroke-width: 2; stroke-linecap: square"/>	
   	</g>	
   	<g id="line2d_4">	
    	<path d="M 395.986265 141.714081  L 395.077982 142.618117  L 393.261417 142.618117  L 393.261417 144.426188  L 392.353135 145.330224  L 392.353135 148.946368  L 391.444852 149.850404  L 391.444852 154.370583  L 390.53657 155.274619  L 390.53657 159.794798  L 389.628287 160.698834  L 389.628287 165.219013  L 388.720005 166.123049  L 388.720005 170.643229  L 387.811722 171.547265  L 387.811722 176.067444  L 386.90344 176.97148  L 386.90344 181.491659  L 385.995157 182.395695  L 385.995157 186.011839  L 385.086875 186.915874  L 385.086875 191.436054  L 384.178592 192.34009  L 384.178592 196.860269  L 383.27031 197.764305  L 383.27031 202.284484  L 382.362027 203.18852  L 382.362027 207.7087  L 381.453745 208.612735  L 381.453745 213.132915  L 380.545462 214.036951  L 380.545462 215.845022  L 377.820615 218.55713  L 376.912332 218.55713  L 375.095767 220.365202  L 374.187485 220.365202  L 372.37092 222.173274  L 371.462637 222.173274  L 369.646072 223.981345  L 368.73779 223.981345  L 366.921225 225.789417  L 366.012942 225.789417  L 364.196377 227.597489  L 363.288095 227.597489  L 361.47153 229.405561  L 360.563247 229.405561  L 358.746682 231.213632  L 357.8384 231.213632  L 356.021835 233.021704  L 355.113552 233.021704  L 353.296987 234.829776  L 352.388705 234.829776  L 350.57214 236.637848  L 349.663857 236.637848  L 347.847292 238.445919  L 346.93901 238.445919  L 345.122445 240.253991  L 344.214162 240.253991  L 343.30588 241.158027  L 343.30588 242.966099  L 342.397597 243.870135  L 342.397597 245.678206  L 343.30588 246.582242  L 343.30588 248.390314  L 344.214162 249.29435  L 345.122445 249.29435  L 346.93901 251.102422  L 347.847292 251.102422  L 349.663857 252.910493  L 350.57214 252.910493  L 352.388705 254.718565  L 353.296987 254.718565  L 354.20527 255.622601  L 355.113552 255.622601  L 356.930117 257.430673  L 357.8384 257.430673  L 359.654965 259.238744  L 360.563247 259.238744  L 362.379812 261.046816  L 363.288095 261.046816  L 364.196377 261.950852  L 365.10466 261.950852  L 366.921225 263.758924  L 367.829507 263.758924  L 369.646072 265.566996  L 370.554355 265.566996  L 371.462637 266.471031  L 372.37092 266.471031  L 374.187485 268.279103  L 375.095767 268.279103  L 376.912332 270.087175  L 377.820615 270.087175  L 379.63718 271.895247  L 379.63718 272.799283  L 380.545462 273.703318  L 380.545462 274.607354  L 381.453745 275.51139  L 381.453745 280.03157  L 382.362027 280.935605  L 382.362027 285.455785  L 383.27031 286.359821  L 383.27031 290.88  L 384.178592 291.784036  L 384.178592 296.304215  L 385.086875 297.208251  L 385.086875 301.72843  L 385.995157 302.632466  L 385.995157 307.152646  L 386.90344 308.056682  L 386.90344 311.672825  L 387.811722 312.576861  L 387.811722 317.09704  L 388.720005 318.001076  L 388.720005 322.521256  L 389.628287 323.425291  L 389.628287 327.945471  L 390.53657 328.849507  L 390.53657 333.369686  L 391.444852 334.273722  L 391.444852 338.793901  L 392.353135 339.697937  L 392.353135 343.314081  L 393.261417 344.218117  L 393.261417 346.026188  L 395.077982 346.026188  L 395.986265 346.930224  L 397.80283 346.930224  L 398.711112 346.026188  L 400.527677 346.026188  L 400.527677 344.218117  L 401.43596 343.314081  L 401.43596 339.697937  L 402.344242 338.793901  L 402.344242 333.369686  L 403.252525 332.46565  L 403.252525 327.945471  L 404.160807 327.041435  L 404.160807 322.521256  L 405.06909 321.61722  L 405.06909 317.09704  L 405.977372 316.193004  L 405.977372 310.768789  L 406.885655 309.864753  L 406.885655 305.344574  L 407.793937 304.440538  L 407.793937 299.920359  L 408.70222 299.016323  L 408.70222 293.592108  L 409.610502 292.688072  L 409.610502 288.167892  L 410.518785 287.263857  L 410.518785 282.743677  L 411.427067 281.839641  L 411.427067 276.415426  L 412.33535 275.51139  L 412.33535 273.703318  L 413.243632 272.799283  L 413.243632 271.895247  L 415.060197 270.087175  L 415.96848 270.087175  L 417.785045 268.279103  L 418.693327 268.279103  L 419.60161 267.375067  L 420.509892 267.375067  L 422.326457 265.566996  L 423.23474 265.566996  L 425.051305 263.758924  L 425.959587 263.758924  L 427.776152 261.950852  L 428.684435 261.950852  L 429.592717 261.046816  L 430.501 261.046816  L 432.317565 259.238744  L 433.225847 259.238744  L 435.042412 257.430673  L 435.950695 257.430673  L 437.76726 255.622601  L 438.675542 255.622601  L 439.583825 254.718565  L 440.492107 254.718565  L 442.308672 252.910493  L 443.216955 252.910493  L 445.03352 251.102422  L 445.941802 251.102422  L 447.758367 249.29435  L 448.66665 249.29435  L 449.574932 248.390314  L 449.574932 246.582242  L 450.483215 245.678206  L 450.483215 243.870135  L 449.574932 242.966099  L 449.574932 241.158027  L 448.66665 240.253991  L 447.758367 240.253991  L 445.941802 238.445919  L 445.03352 238.445919  L 443.216955 236.637848  L 442.308672 236.637848  L 440.492107 234.829776  L 439.583825 234.829776  L 437.76726 233.021704  L 436.858977 233.021704  L 435.042412 231.213632  L 434.13413 231.213632  L 432.317565 229.405561  L 431.409282 229.405561  L 429.592717 227.597489  L 428.684435 227.597489  L 426.86787 225.789417  L 425.959587 225.789417  L 424.143022 223.981345  L 423.23474 223.981345  L 421.418175 222.173274  L 420.509892 222.173274  L 418.693327 220.365202  L 417.785045 220.365202  L 415.96848 218.55713  L 415.060197 218.55713  L 412.33535 215.845022  L 412.33535 213.132915  L 411.427067 212.228879  L 411.427067 206.804664  L 410.518785 205.900628  L 410.518785 201.380448  L 409.610502 200.476413  L 409.610502 195.956233  L 408.70222 195.052197  L 408.70222 189.627982  L 407.793937 188.723946  L 407.793937 184.203767  L 406.885655 183.299731  L 406.885655 178.779552  L 405.977372 177.875516  L 405.977372 173.355336  L 405.06909 172.4513  L 405.06909 167.027085  L 404.160807 166.123049  L 404.160807 161.60287  L 403.252525 160.698834  L 403.252525 156.178655  L 402.344242 155.274619  L 402.344242 149.850404  L 401.43596 148.946368  L 401.43596 145.330224  L 400.527677 144.426188  L 400.527677 142.618117  L 398.711112 142.618117  L 397.80283 141.714081  L 395.986265 141.714081  L 395.986265 141.714081  " clip-path="url(#p235f7d5d1a)" style="fill: none; stroke: #000000; stroke-width: 2; stroke-linecap: square"/>	
   	</g>	
   	<g id="line2d_5">	
    	<path d="M 204.338658 98.320359  L 203.430375 99.224395  L 201.61381 99.224395  L 201.61381 100.12843  L 200.705528 101.032466  L 200.705528 101.936502  L 199.797245 102.840538  L 199.797245 104.64861  L 198.888963 105.552646  L 198.888963 107.360717  L 197.98068 108.264753  L 197.98068 109.168789  L 197.072398 110.072825  L 197.072398 111.880897  L 196.164115 112.784933  L 196.164115 114.593004  L 195.255833 115.49704  L 195.255833 117.305112  L 194.34755 118.209148  L 194.34755 119.113184  L 193.439268 120.01722  L 193.439268 121.825291  L 192.530985 122.729327  L 192.530985 123.633363  L 191.622703 124.537399  L 191.622703 125.441435  L 190.71442 126.345471  L 189.806138 126.345471  L 188.897855 127.249507  L 187.08129 127.249507  L 186.173008 128.153543  L 183.44816 128.153543  L 182.539878 129.057578  L 180.723313 129.057578  L 179.81503 129.961614  L 177.090183 129.961614  L 176.1819 130.86565  L 174.365335 130.86565  L 173.457053 131.769686  L 170.732205 131.769686  L 169.823923 132.673722  L 168.007358 132.673722  L 167.099075 133.577758  L 164.374228 133.577758  L 163.465945 134.481794  L 161.64938 134.481794  L 160.741098 135.38583  L 159.832815 135.38583  L 159.832815 137.193901  L 158.924533 138.097937  L 158.924533 139.906009  L 159.832815 140.810045  L 159.832815 142.618117  L 160.741098 142.618117  L 161.64938 143.522152  L 164.374228 143.522152  L 165.28251 144.426188  L 168.007358 144.426188  L 168.91564 145.330224  L 171.640488 145.330224  L 172.54877 146.23426  L 175.273618 146.23426  L 176.1819 147.138296  L 178.906748 147.138296  L 179.81503 148.042332  L 181.631595 148.042332  L 182.539878 148.946368  L 185.264725 148.946368  L 186.173008 149.850404  L 188.897855 149.850404  L 189.806138 150.754439  L 190.71442 150.754439  L 191.622703 151.658475  L 191.622703 152.562511  L 192.530985 153.466547  L 192.530985 154.370583  L 193.439268 155.274619  L 193.439268 157.082691  L 194.34755 157.986726  L 194.34755 158.890762  L 195.255833 159.794798  L 195.255833 161.60287  L 196.164115 162.506906  L 196.164115 164.314978  L 197.072398 165.219013  L 197.072398 167.027085  L 197.98068 167.931121  L 197.98068 168.835157  L 198.888963 169.739193  L 198.888963 171.547265  L 199.797245 172.4513  L 199.797245 174.259372  L 200.705528 175.163408  L 200.705528 176.97148  L 201.61381 177.875516  L 203.430375 177.875516  L 204.338658 178.779552  L 206.155223 178.779552  L 207.063505 177.875516  L 208.88007 177.875516  L 209.788353 176.97148  L 209.788353 175.163408  L 210.696635 174.259372  L 210.696635 172.4513  L 211.604918 171.547265  L 211.604918 169.739193  L 212.5132 168.835157  L 212.5132 167.931121  L 213.421483 167.027085  L 213.421483 165.219013  L 214.329765 164.314978  L 214.329765 162.506906  L 215.238048 161.60287  L 215.238048 160.698834  L 216.14633 159.794798  L 216.14633 157.986726  L 217.054613 157.082691  L 217.054613 155.274619  L 217.962895 154.370583  L 217.962895 153.466547  L 218.871178 152.562511  L 218.871178 151.658475  L 219.77946 150.754439  L 220.687743 150.754439  L 221.596025 149.850404  L 224.320873 149.850404  L 225.229155 148.946368  L 227.954003 148.946368  L 228.862285 148.042332  L 230.67885 148.042332  L 231.587133 147.138296  L 234.31198 147.138296  L 235.220262 146.23426  L 237.94511 146.23426  L 238.853392 145.330224  L 241.57824 145.330224  L 242.486522 144.426188  L 245.21137 144.426188  L 246.119652 143.522152  L 248.8445 143.522152  L 249.752782 142.618117  L 250.661065 142.618117  L 250.661065 140.810045  L 251.569347 139.906009  L 251.569347 138.097937  L 250.661065 137.193901  L 250.661065 135.38583  L 249.752782 135.38583  L 248.8445 134.481794  L 246.119652 134.481794  L 245.21137 133.577758  L 243.394805 133.577758  L 242.486522 132.673722  L 239.761675 132.673722  L 238.853392 131.769686  L 237.036827 131.769686  L 236.128545 130.86565  L 233.403697 130.86565  L 232.495415 129.961614  L 230.67885 129.961614  L 229.770568 129.057578  L 227.04572 129.057578  L 226.137438 128.153543  L 224.320873 128.153543  L 223.41259 127.249507  L 219.77946 127.249507  L 218.871178 126.345471  L 218.871178 125.441435  L 217.962895 124.537399  L 217.962895 122.729327  L 217.054613 121.825291  L 217.054613 120.01722  L 216.14633 119.113184  L 216.14633 117.305112  L 215.238048 116.401076  L 215.238048 115.49704  L 214.329765 114.593004  L 214.329765 112.784933  L 213.421483 111.880897  L 213.421483 110.072825  L 212.5132 109.168789  L 212.5132 108.264753  L 211.604918 107.360717  L 211.604918 105.552646  L 210.696635 104.64861  L 210.696635 102.840538  L 209.788353 101.936502  L 209.788353 100.12843  L 208.88007 99.224395  L 207.063505 99.224395  L 206.155223 98.320359  L 204.338658 98.320359  L 204.338658 98.320359  " clip-path="url(#p235f7d5d1a)" style="fill: none; stroke: #000000; stroke-width: 2; stroke-linecap: square"/>	
   	</g>	
   	<g id="line2d_6">	
    	<path d="M 554.027419 89.28  L 553.119137 90.184036  L 551.302572 90.184036  L 551.302572 91.088072  L 550.394289 91.992108  L 550.394289 93.800179  L 549.486007 94.704215  L 549.486007 96.512287  L 548.577724 97.416323  L 548.577724 99.224395  L 547.669442 100.12843  L 547.669442 101.936502  L 546.761159 102.840538  L 546.761159 105.552646  L 545.852877 106.456682  L 545.852877 108.264753  L 544.944594 109.168789  L 544.944594 110.976861  L 544.036312 111.880897  L 544.036312 113.688969  L 543.128029 114.593004  L 543.128029 116.401076  L 542.219747 117.305112  L 542.219747 120.921256  L 540.403182 122.729327  L 536.770052 122.729327  L 535.861769 123.633363  L 534.045204 123.633363  L 533.136922 124.537399  L 531.320357 124.537399  L 530.412074 125.441435  L 528.595509 125.441435  L 527.687227 126.345471  L 525.870662 126.345471  L 524.962379 127.249507  L 522.237532 127.249507  L 521.329249 128.153543  L 519.512684 128.153543  L 518.604402 129.057578  L 516.787837 129.057578  L 515.879554 129.961614  L 514.062989 129.961614  L 513.154707 130.86565  L 511.338142 130.86565  L 510.429859 131.769686  L 509.521577 131.769686  L 509.521577 133.577758  L 508.613294 134.481794  L 508.613294 136.289865  L 509.521577 137.193901  L 509.521577 139.001973  L 510.429859 139.001973  L 511.338142 139.906009  L 513.154707 139.906009  L 514.062989 140.810045  L 515.879554 140.810045  L 516.787837 141.714081  L 518.604402 141.714081  L 519.512684 142.618117  L 521.329249 142.618117  L 522.237532 143.522152  L 524.054097 143.522152  L 524.962379 144.426188  L 527.687227 144.426188  L 528.595509 145.330224  L 530.412074 145.330224  L 531.320357 146.23426  L 533.136922 146.23426  L 534.045204 147.138296  L 535.861769 147.138296  L 536.770052 148.042332  L 538.586617 148.042332  L 539.494899 148.946368  L 540.403182 148.946368  L 541.311464 149.850404  L 541.311464 150.754439  L 542.219747 151.658475  L 542.219747 153.466547  L 543.128029 154.370583  L 543.128029 156.178655  L 544.036312 157.082691  L 544.036312 158.890762  L 544.944594 159.794798  L 544.944594 161.60287  L 545.852877 162.506906  L 545.852877 164.314978  L 546.761159 165.219013  L 546.761159 167.931121  L 547.669442 168.835157  L 547.669442 170.643229  L 548.577724 171.547265  L 548.577724 173.355336  L 549.486007 174.259372  L 549.486007 176.067444  L 550.394289 176.97148  L 550.394289 178.779552  L 551.302572 179.683587  L 551.302572 180.587623  L 553.119137 180.587623  L 554.027419 181.491659  L 555.843984 181.491659  L 556.752267 180.587623  L 558.568832 180.587623  L 558.568832 179.683587  L 559.477114 178.779552  L 559.477114 176.97148  L 560.385397 176.067444  L 560.385397 174.259372  L 561.293679 173.355336  L 561.293679 171.547265  L 562.201962 170.643229  L 562.201962 168.835157  L 563.110244 167.931121  L 563.110244 166.123049  L 564.018527 165.219013  L 564.018527 162.506906  L 564.926809 161.60287  L 564.926809 159.794798  L 565.835092 158.890762  L 565.835092 157.082691  L 566.743374 156.178655  L 566.743374 154.370583  L 567.651657 153.466547  L 567.651657 151.658475  L 568.559939 150.754439  L 568.559939 149.850404  L 569.468222 148.946368  L 570.376504 148.946368  L 571.284787 148.042332  L 573.101352 148.042332  L 574.009634 147.138296  L 575.826199 147.138296  L 576.734482 146.23426  L 578.551047 146.23426  L 579.459329 145.330224  L 581.275894 145.330224  L 582.184177 144.426188  L 584.909024 144.426188  L 585.817307 143.522152  L 587.633872 143.522152  L 588.542154 142.618117  L 590.358719 142.618117  L 591.267002 141.714081  L 593.083567 141.714081  L 593.991849 140.810045  L 595.808414 140.810045  L 596.716697 139.906009  L 598.533262 139.906009  L 599.441544 139.001973  L 600.349827 139.001973  L 600.349827 137.193901  L 601.258109 136.289865  L 601.258109 134.481794  L 600.349827 133.577758  L 600.349827 131.769686  L 599.441544 131.769686  L 598.533262 130.86565  L 596.716697 130.86565  L 595.808414 129.961614  L 593.991849 129.961614  L 593.083567 129.057578  L 591.267002 129.057578  L 590.358719 128.153543  L 588.542154 128.153543  L 587.633872 127.249507  L 584.909024 127.249507  L 584.000742 126.345471  L 582.184177 126.345471  L 581.275894 125.441435  L 579.459329 125.441435  L 578.551047 124.537399  L 576.734482 124.537399  L 575.826199 123.633363  L 574.009634 123.633363  L 573.101352 122.729327  L 571.284787 122.729327  L 570.376504 121.825291  L 569.468222 121.825291  L 568.559939 120.921256  L 568.559939 120.01722  L 567.651657 119.113184  L 567.651657 117.305112  L 566.743374 116.401076  L 566.743374 114.593004  L 565.835092 113.688969  L 565.835092 111.880897  L 564.926809 110.976861  L 564.926809 109.168789  L 564.018527 108.264753  L 564.018527 105.552646  L 563.110244 104.64861  L 563.110244 102.840538  L 562.201962 101.936502  L 562.201962 100.12843  L 561.293679 99.224395  L 561.293679 97.416323  L 560.385397 96.512287  L 560.385397 94.704215  L 559.477114 93.800179  L 559.477114 91.992108  L 558.568832 91.088072  L 558.568832 90.184036  L 556.752267 90.184036  L 555.843984 89.28  L 554.027419 89.28  L 554.027419 89.28  " clip-path="url(#p235f7d5d1a)" style="fill: none; stroke: #000000; stroke-width: 2; stroke-linecap: square"/>	
   	</g>	
  	</g>	
 	</g>	
 	<defs>	
  	<clipPath id="p235f7d5d1a">	
   	<rect x="119.732143" y="69.12" width="742.339286" height="443.52"/>	
  	</clipPath>	
 	</defs>	
	</svg>