<?xml version="1.0" ?><!DOCTYPE svg  PUBLIC '-//W3C//DTD SVG 1.1//EN'  'http://www.w3.org/Graphics/SVG/1.1/DTD/svg11.dtd'>	<svg xmlns:xlink="http://www.w3.org/1999/xlink" xmlns="http://www.w3.org/2000/svg" width="1326.139535pt" height="576pt" viewBox="0 0 1326.139535 576" version="1.1">	
 	<metadata>	
  	<rdf:RDF xmlns:dc="http://purl.org/dc/elements/1.1/" xmlns:cc="http://creativecommons.org/ns#" xmlns:rdf="http://www.w3.org/1999/02/22-rdf-syntax-ns#">	
   	<cc:Work>	
    	<dc:type rdf:resource="http://purl.org/dc/dcmitype/StillImage"/>	
    	<dc:date>2025-04-25T16:30:41.425171</dc:date>	
    	<dc:format>image/svg+xml</dc:format>	
    	<dc:creator>	
     	<cc:Agent>	
      	<dc:title>Matplotlib v3.7.5, https://matplotlib.org/</dc:title>	
     	</cc:Agent>	
    	</dc:creator>	
   	</cc:Work>	
  	</rdf:RDF>	
 	</metadata>	
 	<defs>	
  	<style type="text/css">*{stroke-linejoin: round; stroke-linecap: butt}</style>	
 	</defs>	
 	<g id="figure_1">	
  	
  	<g id="axes_1">	
   	<g id="line2d_1">	
    	<path d="M 617.675937 89.28  L 598.608068 108.48  L 598.608068 113.28  L 593.841101 118.08  L 593.841101 127.68  L 589.074134 132.48  L 589.074134 146.88  L 584.307167 151.68  L 584.307167 156.48  L 579.540199 161.28  L 565.239298 161.28  L 560.47233 156.48  L 560.47233 132.48  L 536.637494 132.48  L 522.336592 146.88  L 517.569625 142.08  L 517.569625 137.28  L 522.336592 132.48  L 522.336592 113.28  L 493.734789 113.28  L 488.967822 108.48  L 388.861509 108.48  L 384.094542 103.68  L 341.191837 103.68  L 336.424869 98.88  L 279.221262 98.88  L 274.454295 103.68  L 260.153393 103.68  L 250.619459 113.28  L 250.619459 118.08  L 245.852492 122.88  L 245.852492 146.88  L 298.289131 146.88  L 303.056099 151.68  L 326.890935 151.68  L 331.657902 156.48  L 345.958804 156.48  L 355.492738 166.08  L 350.725771 170.88  L 350.725771 238.08  L 345.958804 242.88  L 345.958804 252.48  L 336.424869 262.08  L 283.98823 262.08  L 264.920361 281.28  L 264.920361 305.28  L 269.687328 310.08  L 303.056099 310.08  L 312.590033 319.68  L 312.590033 334.08  L 307.823066 338.88  L 307.823066 367.68  L 303.056099 372.48  L 303.056099 396.48  L 298.289131 401.28  L 264.920361 401.28  L 260.153393 406.08  L 231.55159 406.08  L 212.483721 425.28  L 212.483721 449.28  L 360.259706 449.28  L 365.026673 444.48  L 379.327575 444.48  L 384.094542 439.68  L 469.899953 439.68  L 484.200854 425.28  L 484.200854 396.48  L 460.366018 396.48  L 455.599051 391.68  L 403.162411 391.68  L 398.395444 396.48  L 369.79364 396.48  L 365.026673 401.28  L 360.259706 401.28  L 355.492738 396.48  L 360.259706 391.68  L 360.259706 353.28  L 365.026673 348.48  L 365.026673 329.28  L 369.79364 324.48  L 369.79364 319.68  L 374.560607 314.88  L 379.327575 314.88  L 384.094542 310.08  L 431.764215 310.08  L 446.065116 295.68  L 446.065116 266.88  L 422.23028 266.88  L 417.463313 262.08  L 398.395444 262.08  L 393.628477 257.28  L 393.628477 252.48  L 398.395444 247.68  L 398.395444 223.68  L 403.162411 218.88  L 403.162411 170.88  L 417.463313 156.48  L 479.433887 156.48  L 488.967822 166.08  L 488.967822 170.88  L 493.734789 170.88  L 498.501756 175.68  L 498.501756 180.48  L 503.268723 185.28  L 503.268723 262.08  L 527.10356 262.08  L 536.637494 252.48  L 536.637494 247.68  L 546.171429 238.08  L 546.171429 228.48  L 550.938396 223.68  L 550.938396 218.88  L 560.47233 209.28  L 579.540199 209.28  L 584.307167 204.48  L 589.074134 204.48  L 593.841101 209.28  L 574.773232 228.48  L 574.773232 257.28  L 603.375036 257.28  L 608.142003 262.08  L 612.90897 262.08  L 617.675937 266.88  L 617.675937 271.68  L 608.142003 281.28  L 598.608068 281.28  L 593.841101 286.08  L 570.006265 286.08  L 560.47233 295.68  L 555.705363 295.68  L 546.171429 305.28  L 546.171429 329.28  L 589.074134 329.28  L 593.841101 334.08  L 598.608068 334.08  L 603.375036 338.88  L 603.375036 353.28  L 598.608068 358.08  L 598.608068 377.28  L 589.074134 386.88  L 565.239298 386.88  L 560.47233 391.68  L 555.705363 391.68  L 536.637494 410.88  L 536.637494 439.68  L 541.404461 444.48  L 541.404461 458.88  L 555.705363 473.28  L 593.841101 473.28  L 598.608068 468.48  L 603.375036 468.48  L 627.209872 444.48  L 627.209872 434.88  L 631.976839 430.08  L 631.976839 420.48  L 636.743806 415.68  L 636.743806 401.28  L 641.510774 396.48  L 641.510774 391.68  L 646.277741 386.88  L 646.277741 358.08  L 651.044708 353.28  L 651.044708 338.88  L 655.811675 334.08  L 660.578643 334.08  L 665.34561 329.28  L 684.413479 329.28  L 689.180446 324.48  L 722.549217 324.48  L 741.617086 305.28  L 741.617086 281.28  L 670.112577 281.28  L 665.34561 276.48  L 665.34561 266.88  L 670.112577 262.08  L 670.112577 238.08  L 674.879544 233.28  L 708.248315 233.28  L 717.78225 223.68  L 722.549217 223.68  L 727.316184 218.88  L 732.083151 218.88  L 779.752824 170.88  L 808.354627 170.88  L 813.121595 175.68  L 813.121595 180.48  L 794.053726 199.68  L 794.053726 209.28  L 779.752824 223.68  L 779.752824 247.68  L 794.053726 247.68  L 798.820693 252.48  L 827.422496 252.48  L 832.189464 257.28  L 827.422496 262.08  L 789.286758 262.08  L 765.451922 286.08  L 765.451922 310.08  L 770.218889 314.88  L 765.451922 319.68  L 760.684955 319.68  L 741.617086 338.88  L 741.617086 362.88  L 755.917988 362.88  L 760.684955 367.68  L 789.286758 367.68  L 794.053726 372.48  L 794.053726 377.28  L 784.519791 386.88  L 784.519791 396.48  L 774.985857 406.08  L 774.985857 415.68  L 770.218889 420.48  L 770.218889 425.28  L 765.451922 430.08  L 765.451922 434.88  L 751.15102 449.28  L 746.384053 449.28  L 741.617086 454.08  L 741.617086 492.48  L 774.985857 492.48  L 803.58766 463.68  L 803.58766 458.88  L 813.121595 449.28  L 813.121595 439.68  L 817.888562 434.88  L 817.888562 420.48  L 832.189464 406.08  L 832.189464 396.48  L 841.723398 386.88  L 841.723398 382.08  L 846.490365 377.28  L 846.490365 372.48  L 851.257333 367.68  L 960.897579 367.68  L 965.664547 372.48  L 960.897579 377.28  L 960.897579 382.08  L 956.130612 386.88  L 937.062743 386.88  L 932.295776 391.68  L 927.528809 391.68  L 927.528809 396.48  L 922.761841 401.28  L 917.994874 401.28  L 908.46094 410.88  L 908.46094 439.68  L 917.994874 449.28  L 917.994874 454.08  L 932.295776 468.48  L 970.431514 468.48  L 979.965449 458.88  L 984.732416 458.88  L 999.033318 444.48  L 999.033318 434.88  L 1003.800285 430.08  L 1003.800285 420.48  L 1008.567252 415.68  L 1008.567252 401.28  L 1013.334219 396.48  L 1013.334219 386.88  L 1018.101187 382.08  L 1018.101187 338.88  L 1027.635121 329.28  L 1061.003892 329.28  L 1065.770859 334.08  L 1051.469957 348.48  L 1051.469957 353.28  L 1046.70299 358.08  L 1046.70299 362.88  L 1032.402088 377.28  L 1032.402088 406.08  L 1037.169056 410.88  L 1037.169056 439.68  L 1041.936023 444.48  L 1041.936023 454.08  L 1089.605695 454.08  L 1113.440532 430.08  L 1113.440532 410.88  L 1118.207499 406.08  L 1118.207499 382.08  L 1122.974466 377.28  L 1122.974466 343.68  L 1127.741433 338.88  L 1127.741433 329.28  L 1142.042335 314.88  L 1142.042335 305.28  L 1146.809302 300.48  L 1146.809302 194.88  L 1142.042335 190.08  L 1089.605695 190.08  L 1084.838728 194.88  L 1051.469957 194.88  L 1046.70299 199.68  L 1041.936023 194.88  L 1041.936023 185.28  L 984.732416 185.28  L 979.965449 190.08  L 970.431514 190.08  L 965.664547 194.88  L 946.596678 194.88  L 941.82971 199.68  L 898.927005 199.68  L 894.160038 194.88  L 903.693972 185.28  L 908.46094 185.28  L 913.227907 180.48  L 917.994874 180.48  L 932.295776 166.08  L 937.062743 166.08  L 937.062743 137.28  L 894.160038 137.28  L 879.859136 151.68  L 870.325202 151.68  L 865.558234 146.88  L 865.558234 89.28  L 836.956431 89.28  L 817.888562 108.48  L 817.888562 132.48  L 808.354627 142.08  L 794.053726 142.08  L 789.286758 137.28  L 784.519791 137.28  L 779.752824 132.48  L 760.684955 132.48  L 755.917988 127.68  L 732.083151 127.68  L 727.316184 132.48  L 698.714381 132.48  L 693.947413 137.28  L 665.34561 137.28  L 660.578643 142.08  L 646.277741 142.08  L 641.510774 137.28  L 641.510774 89.28  L 617.675937 89.28  L 617.675937 89.28  " clip-path="url(#p9c5b079446)" style="fill: none; stroke: #000000; stroke-width: 2; stroke-linecap: square"/>	
   	</g>	
  	</g>	
 	</g>	
 	<defs>	
  	<clipPath id="p9c5b079446">	
   	<rect x="165.767442" y="69.12" width="1027.75814" height="443.52"/>	
  	</clipPath>	
 	</defs>	
	</svg>